<?xml version="1.0" encoding="UTF-8" standalone="no"?>
<!-- Created with Inkscape (http://www.inkscape.org/) -->

<svg
   width="210mm"
   height="297mm"
   viewBox="0 0 210 297"
   version="1.1"
   id="svg132194"
   inkscape:version="1.1 (c68e22c387, 2021-05-23)"
   sodipodi:docname="dibujo-p006.svg"
   xmlns:inkscape="http://www.inkscape.org/namespaces/inkscape"
   xmlns:sodipodi="http://sodipodi.sourceforge.net/DTD/sodipodi-0.dtd"
   xmlns="http://www.w3.org/2000/svg"
   xmlns:svg="http://www.w3.org/2000/svg">
  <sodipodi:namedview
     id="namedview132196"
     pagecolor="#ffffff"
     bordercolor="#666666"
     borderopacity="1.0"
     inkscape:pageshadow="2"
     inkscape:pageopacity="0.0"
     inkscape:pagecheckerboard="0"
     inkscape:document-units="mm"
     showgrid="false"
     inkscape:zoom="1.0482005"
     inkscape:cx="221.3317"
     inkscape:cy="321.98039"
     inkscape:window-width="2560"
     inkscape:window-height="1017"
     inkscape:window-x="-8"
     inkscape:window-y="-8"
     inkscape:window-maximized="1"
     inkscape:current-layer="layer1" />
  <defs
     id="defs132191" />
  <g
     inkscape:label="Capa 1"
     inkscape:groupmode="layer"
     id="layer1">
    <g
       id="g135728">
      <g
         id="g6746-9-55-3-5-8"
         transform="translate(62.869451,-16.47602)">
        <rect
           style="fill:#000000;fill-opacity:1;stroke:#000000;stroke-width:0.5;stroke-miterlimit:4;stroke-dasharray:none;stroke-opacity:1"
           id="rect3640-97-2-9-2-42-8"
           width="25.929165"
           height="25.929167"
           x="-20.85755"
           y="81.542709" />
        <rect
           style="fill:#ffffff;fill-opacity:1;stroke:#000000;stroke-width:0.3;stroke-miterlimit:4;stroke-dasharray:none;stroke-opacity:1"
           id="rect3640-2-96-7-24-5"
           width="25.929165"
           height="25.929167"
           x="-21.386717"
           y="81.013542" />
      </g>
      <path
         d="m 76.347945,88.005065 v -1.98438 h -1.3073 c -0.71902,0 -1.38089,0.11907 -1.47083,0.26459 -0.46545,0.75311 -2.24895,-0.12264 -2.24895,-1.10431 0,-0.90491 1.81141,-1.720321 2.24895,-1.01236 0.0899,0.14552 0.75181,0.26458 1.47083,0.26458 h 1.3073 v -4.497911 -4.49792 h -1.3073 c -0.71902,0 -1.38089,0.11906 -1.47083,0.26458 -0.46545,0.75312 -2.24895,-0.12264 -2.24895,-1.1043 0,-0.90492 1.81141,-1.72032 2.24895,-1.01236 0.0899,0.14552 0.75181,0.26458 1.47083,0.26458 h 1.3073 v -4.49792 -4.49791 h -1.3073 c -0.71902,0 -1.38089,0.11906 -1.47083,0.26458 -0.46545,0.75312 -2.24895,-0.12264 -2.24895,-1.1043 0,-0.90492 1.81141,-1.72032 2.24895,-1.01237 0.0899,0.14552 0.75181,0.26459 1.47083,0.26459 h 1.3073 v -13.49375 -13.49376 h -1.3073 c -0.71902,0 -1.38089,0.119067 -1.47083,0.264588 -0.46545,0.75311 -2.24895,-0.122639 -2.24895,-1.10431 0,-0.90492 1.81141,-1.720321 2.24895,-1.012359 0.0899,0.145521 0.75181,0.264581 1.47083,0.264581 h 1.3073 v -4.497912 -4.497919 h -1.3073 c -0.71902,0 -1.38089,0.11906 -1.47083,0.264581 -0.46545,0.753118 -2.24895,-0.122643 -2.24895,-1.104302 0,-0.90492 1.81141,-1.720319 2.24895,-1.01236 0.0899,0.145521 0.75181,0.264581 1.47083,0.264581 h 1.3073 v -4.497919 -4.497912 h -1.3073 c -0.71902,0 -1.38089,0.11906 -1.47083,0.264581 -0.46545,0.753121 -2.24895,-0.12264 -2.24895,-1.104299 0,-0.90492 1.81141,-1.720332 2.24895,-1.01237 0.0899,0.145518 0.75181,0.264588 1.47083,0.264588 h 1.3073 V 11.275891 7.4394329 h 2.91041 2.91042 v 3.8364581 2.248961 h 1.43959 c 0.79178,0 1.51318,-0.11907 1.60312,-0.264588 0.46545,-0.75311 2.24896,0.122639 2.24896,1.10431 0,0.90492 -1.81142,1.720318 -2.24896,1.012359 -0.0899,-0.145521 -0.81134,-0.264581 -1.60312,-0.264581 h -1.43959 v 4.497912 4.497919 h 1.43959 c 0.79178,0 1.51318,-0.11906 1.60312,-0.264581 0.46545,-0.75312 2.24896,0.12264 2.24896,1.1043 0,0.90492 -1.81142,1.720321 -2.24896,1.012362 -0.0899,-0.145521 -0.81134,-0.264581 -1.60312,-0.264581 h -1.43959 v 4.497919 4.497912 h 1.43959 c 0.79178,0 1.51318,-0.11906 1.60312,-0.264581 0.46545,-0.75311 2.24896,0.12264 2.24896,1.10431 0,0.904909 -1.81142,1.720321 -2.24896,1.012359 -0.0899,-0.145521 -0.81134,-0.264588 -1.60312,-0.264588 h -1.43959 v 13.49376 13.49375 h 1.43959 c 0.79178,0 1.51318,-0.11907 1.60312,-0.26459 0.46545,-0.75311 2.24896,0.12264 2.24896,1.10431 0,0.90492 -1.81142,1.72032 -2.24896,1.01236 -0.0899,-0.14552 -0.81134,-0.26458 -1.60312,-0.26458 h -1.43959 v 4.49791 4.49792 h 1.43959 c 0.79178,0 1.51318,-0.11906 1.60312,-0.26458 0.46545,-0.75312 2.24896,0.12264 2.24896,1.1043 0,0.90492 -1.81142,1.72032 -2.24896,1.01236 -0.0899,-0.14552 -0.81134,-0.26458 -1.60312,-0.26458 h -1.43959 v 4.49792 4.497911 h 1.43959 c 0.79178,0 1.51318,-0.11906 1.60312,-0.26458 0.46545,-0.753111 2.24896,0.12264 2.24896,1.10431 0,0.90491 -1.81142,1.72032 -2.24896,1.01236 -0.0899,-0.14552 -0.81134,-0.26459 -1.60312,-0.26459 h -1.43959 v 1.98438 3.571873 h -2.91042 -2.91041 z m 1.52135,-2.97433 c -0.98226,-0.0509 -2.58961,-0.0509 -3.57187,0 -0.98227,0.0509 -0.17859,0.0926 1.78594,0.0926 1.96453,0 2.7682,-0.0417 1.78593,-0.0926 z m 2.64033,0.0363 c -0.0879,-0.0879 -0.31613,-0.0973 -0.50712,-0.0209 -0.21107,0.0845 -0.14838,0.14715 0.15985,0.15985 0.27891,0.0115 0.43518,-0.051 0.34727,-0.13897 z m -2.64033,-10.619681 c -0.98226,-0.0509 -2.58961,-0.0509 -3.57187,0 -0.98227,0.0509 -0.17859,0.0926 1.78594,0.0926 1.96453,0 2.7682,-0.0416 1.78593,-0.0926 z m 2.64033,0.0363 c -0.0879,-0.0879 -0.31613,-0.0973 -0.50712,-0.0209 -0.21107,0.0845 -0.14838,0.14715 0.15985,0.15984 0.27891,0.0115 0.43518,-0.051 0.34727,-0.13895 z m -2.64033,-10.61968 c -0.98226,-0.0509 -2.58961,-0.0509 -3.57187,0 -0.98227,0.0509 -0.17859,0.0925 1.78594,0.0925 1.96453,0 2.7682,-0.0416 1.78593,-0.0925 z m 2.64033,0.0363 c -0.0879,-0.0879 -0.31613,-0.0973 -0.50712,-0.0209 -0.21107,0.0845 -0.14838,0.14715 0.15985,0.15985 0.27891,0.0115 0.43518,-0.0511 0.34727,-0.13897 z m -2.64033,-28.611212 c -0.98226,-0.0509 -2.58961,-0.0509 -3.57187,0 -0.98227,0.0509 -0.17859,0.0926 1.78594,0.0926 1.96453,0 2.7682,-0.0417 1.78593,-0.0926 z m 2.64033,0.0364 c -0.0879,-0.0879 -0.31613,-0.0973 -0.50712,-0.0209 -0.21107,0.0845 -0.14838,0.147159 0.15985,0.159848 0.27891,0.01151 0.43518,-0.051 0.34727,-0.138959 z m -2.64033,-10.61968 c -0.98226,-0.0509 -2.58961,-0.0509 -3.57187,0 -0.98227,0.0509 -0.17859,0.0926 1.78594,0.0926 1.96453,0 2.7682,-0.0416 1.78593,-0.0926 z m 2.64033,0.0363 c -0.0879,-0.0879 -0.31613,-0.0973 -0.50712,-0.0209 -0.21107,0.0845 -0.14838,0.147151 0.15985,0.159851 0.27891,0.01151 0.43518,-0.051 0.34727,-0.138962 z m -2.64033,-10.619689 c -0.98226,-0.0509 -2.58961,-0.0509 -3.57187,0 -0.98227,0.0509 -0.17859,0.0926 1.78594,0.0926 1.96453,0 2.7682,-0.0417 1.78593,-0.0926 z m 2.64033,0.0363 c -0.0879,-0.0879 -0.31613,-0.0973 -0.50712,-0.0209 -0.21107,0.0845 -0.14838,0.147162 0.15985,0.159862 0.27891,0.01151 0.43518,-0.0511 0.34727,-0.13897 z"
         style="fill:#d0d0d0;fill-opacity:1;stroke-width:0.0700042"
         id="path8169-1-7"
         sodipodi:nodetypes="ccssssscccssssscccssssscccssssscccssssscccssssscccccccssssscccssssscccssssscccssssscccssssscccsssssccccccssssscssscsscscsssssssscssssssssccsscsscscsssssssscsss" />
      <path
         d="m 76.405805,88.071195 -0.058,-2.05052 h -1.3073 c -0.71902,0 -1.38089,0.11907 -1.47083,0.26459 -0.46545,0.75311 -2.24896,-0.12264 -2.24896,-1.10431 0,-0.90491 1.81142,-1.720321 2.24896,-1.01236 0.0899,0.14552 0.75181,0.26458 1.47083,0.26458 h 1.3073 v -4.497911 -4.49792 h -1.3073 c -0.71902,0 -1.38089,0.11906 -1.47083,0.26458 -0.46545,0.75312 -2.24896,-0.12264 -2.24896,-1.1043 0,-0.90492 1.81142,-1.72032 2.24896,-1.01236 0.0899,0.14552 0.75181,0.26458 1.47083,0.26458 h 1.3073 v -4.49792 -4.49791 h -1.3073 c -0.71902,0 -1.38089,0.11906 -1.47083,0.26458 -0.46545,0.75312 -2.24896,-0.12264 -2.24896,-1.1043 0,-0.90492 1.81142,-1.72032 2.24896,-1.01237 0.0899,0.14552 0.75181,0.26459 1.47083,0.26459 h 1.3073 v -13.49375 -13.49375 h -1.3073 c -0.71902,0 -1.38089,0.11906 -1.47083,0.26458 -0.46545,0.753121 -2.24896,-0.122639 -2.24896,-1.104302 0,-0.90492 1.81142,-1.720318 2.24896,-1.012359 0.0899,0.145521 0.75181,0.264581 1.47083,0.264581 h 1.3073 v -4.49792 -4.497911 h -1.3073 c -0.71902,0 -1.38089,0.11906 -1.47083,0.264581 -0.46545,0.75312 -2.24896,-0.12264 -2.24896,-1.10431 0,-0.90491 1.81142,-1.720321 2.24896,-1.01236 0.0899,0.145519 0.75181,0.264589 1.47083,0.264589 h 1.3073 v -4.497919 -4.49792 h -1.3073 c -0.71902,0 -1.38089,0.119071 -1.47083,0.264589 -0.46545,0.75311 -2.24896,-0.12264 -2.24896,-1.10431 0,-0.90492 1.81142,-1.720318 2.24896,-1.012359 0.0899,0.145521 0.74863,0.26458 1.46375,0.26458 h 1.30023 l 0.0809,-2.315101 0.0809,-3.9025991 0.0585,3.9025991 0.0585,2.315101 h 2.63876 2.63876 l 0.0809,-2.315101 0.0809,-3.9025991 0.0585,3.9025991 0.0585,2.315101 h 1.43959 c 0.79178,0 1.51318,-0.119059 1.60312,-0.26458 0.46545,-0.753121 2.24895,0.122639 2.24895,1.10431 0,0.904909 -1.81141,1.720321 -2.24895,1.012359 -0.0899,-0.145518 -0.81134,-0.264589 -1.60312,-0.264589 h -1.43959 v 4.49792 4.497919 h 1.43959 c 0.79178,0 1.51318,-0.11907 1.60312,-0.264589 0.46545,-0.75311 2.24895,0.12264 2.24895,1.10431 0,0.90492 -1.81141,1.720319 -2.24895,1.01236 -0.0899,-0.145521 -0.81134,-0.264581 -1.60312,-0.264581 h -1.43959 v 4.497911 4.49792 h 1.43959 c 0.79178,0 1.51318,-0.11906 1.60312,-0.264581 0.46545,-0.753121 2.24895,0.12264 2.24895,1.104299 0,0.90492 -1.81141,1.720321 -2.24895,1.012362 -0.0899,-0.14552 -0.81134,-0.26458 -1.60312,-0.26458 h -1.43959 v 13.49375 13.49375 h 1.43959 c 0.79178,0 1.51318,-0.11907 1.60312,-0.26459 0.46545,-0.75311 2.24895,0.12264 2.24895,1.10431 0,0.90492 -1.81141,1.72032 -2.24895,1.01236 -0.0899,-0.14552 -0.81134,-0.26458 -1.60312,-0.26458 h -1.43959 v 4.49791 4.49792 h 1.43959 c 0.79178,0 1.51318,-0.11906 1.60312,-0.26458 0.46545,-0.75312 2.24895,0.12264 2.24895,1.1043 0,0.90492 -1.81141,1.72032 -2.24895,1.01236 -0.0899,-0.14552 -0.81134,-0.26458 -1.60312,-0.26458 h -1.43959 v 4.49792 4.497911 h 1.43959 c 0.79178,0 1.51318,-0.11906 1.60312,-0.26458 0.46545,-0.753111 2.24895,0.12264 2.24895,1.10431 0,0.90491 -1.81141,1.72032 -2.24895,1.01236 -0.0899,-0.14552 -0.80798,-0.26459 -1.59565,-0.26459 h -1.43213 l -0.0817,2.05052 -0.0817,3.638033 -0.058,-3.638033 -0.058,-2.05052 h -2.63837 -2.63836 l -0.0817,2.05052 -0.0817,3.638033 z m 2.96979,-2.47829 c 0.32916,-0.12631 0.35663,-0.2459 0.12154,-0.52917 -0.23178,-0.27927 -1.16995,-0.36597 -3.95989,-0.36597 -3.49337,0 -4.21727,0.15043 -3.81968,0.79375 0.17747,0.28715 6.94059,0.3767 7.65803,0.10139 z m 7.6878,-0.36598 c 0,-0.33098 -0.63233,-0.4091 -3.80893,-0.47052 -3.20127,-0.0619 -3.76093,-0.0158 -3.50803,0.28893 0.16551,0.19942 0.21906,0.44443 0.11902,0.54447 -0.10005,0.10004 1.47856,0.14862 3.50802,0.10795 3.07068,-0.0615 3.68992,-0.14055 3.68992,-0.47083 z m -5.15937,-5.291661 v -4.49792 h -2.64583 -2.64584 v 4.49792 4.497911 h 2.64584 2.64583 z m -2.52843,-4.92569 c 0.32916,-0.12631 0.35663,-0.2459 0.12154,-0.52917 -0.23178,-0.27927 -1.16995,-0.36598 -3.95989,-0.36598 -3.49337,0 -4.21727,0.15044 -3.81968,0.79375 0.17747,0.28716 6.94059,0.3767 7.65803,0.1014 z m 7.6878,-0.36598 c 0,-0.33099 -0.63233,-0.4091 -3.80893,-0.47052 -3.20127,-0.0619 -3.76093,-0.0158 -3.50803,0.28893 0.16551,0.19941 0.21906,0.44443 0.11902,0.54447 -0.10005,0.10004 1.47856,0.14862 3.50802,0.10795 3.07068,-0.0615 3.68992,-0.14056 3.68992,-0.47083 z m -5.15937,-5.29167 v -4.49791 h -2.64583 -2.64584 v 4.49791 4.49792 h 2.64584 2.64583 z m -2.52843,-4.92569 c 0.32916,-0.12631 0.35663,-0.2459 0.12154,-0.52916 -0.23178,-0.27927 -1.16995,-0.36598 -3.95989,-0.36598 -3.49337,0 -4.21727,0.15043 -3.81968,0.79375 0.17747,0.28716 6.94059,0.3767 7.65803,0.10139 z m 7.6878,-0.36597 c 0,-0.33099 -0.63233,-0.4091 -3.80893,-0.47052 -3.20127,-0.0619 -3.76093,-0.0158 -3.50803,0.28892 0.16551,0.19942 0.21906,0.44443 0.11902,0.54448 -0.10005,0.10004 1.47856,0.14862 3.50802,0.10794 3.07068,-0.0615 3.68992,-0.14055 3.68992,-0.47082 z m -5.15937,-14.2875 v -13.49375 h -2.64583 -2.64584 v 13.49375 13.49375 h 2.64584 2.64583 z m -2.52843,-13.921521 c 0.32916,-0.12632 0.35663,-0.245898 0.12154,-0.529169 -0.23178,-0.27927 -1.16995,-0.36598 -3.95989,-0.36598 -3.49337,0 -4.21727,0.150429 -3.81968,0.79375 0.17747,0.287161 6.94059,0.376701 7.65803,0.101399 z m 7.6878,-0.365979 c 0,-0.330991 -0.63233,-0.409099 -3.80893,-0.470519 -3.20127,-0.0619 -3.76093,-0.0158 -3.50803,0.28893 0.16551,0.199408 0.21906,0.444418 0.11902,0.544467 -0.10005,0.100042 1.47856,0.148622 3.50802,0.10795 3.07068,-0.0615 3.68992,-0.14056 3.68992,-0.470828 z m -5.15937,-5.29167 v -4.497911 h -2.64583 -2.64584 v 4.497911 4.49792 h 2.64584 2.64583 z m -2.52843,-4.925689 c 0.32916,-0.126312 0.35663,-0.245901 0.12154,-0.529162 -0.23178,-0.27927 -1.16995,-0.365979 -3.95989,-0.365979 -3.49337,0 -4.21727,0.150429 -3.81968,0.79375 0.17747,0.28716 6.94059,0.3767 7.65803,0.101391 z m 7.6878,-0.365972 c 0,-0.330988 -0.63233,-0.409099 -3.80893,-0.470519 -3.20127,-0.0619 -3.76093,-0.0158 -3.50803,0.28892 0.16551,0.199419 0.21906,0.444431 0.11902,0.54447 -0.10005,0.100049 1.47856,0.148619 3.50802,0.10795 3.07068,-0.0615 3.68992,-0.14055 3.68992,-0.470821 z m -5.15937,-5.291669 v -4.49792 h -2.64583 -2.64584 v 4.49792 4.497919 h 2.64584 2.64583 z m -2.52843,-4.92569 c 0.32916,-0.126309 0.35663,-0.245901 0.12154,-0.529169 -0.23178,-0.279271 -1.16995,-0.365972 -3.95989,-0.365972 -3.49337,0 -4.21727,0.150432 -3.81968,0.79375 0.17747,0.28715 6.94059,0.376701 7.65803,0.101391 z m 7.6878,-0.36598 c 0,-0.330991 -0.63233,-0.409101 -3.80893,-0.470521 -3.20127,-0.0619 -3.76093,-0.0158 -3.50803,0.28893 0.16551,0.199411 0.21906,0.444431 0.11902,0.54447 -0.10005,0.100042 1.47856,0.148622 3.50802,0.10795 3.07068,-0.0615 3.68992,-0.14056 3.68992,-0.470829 z"
         style="fill:#000000;fill-opacity:1;stroke-width:0.0700042"
         id="path7594-4-5"
         sodipodi:nodetypes="ccssssscccssssscccssscscccssscscccssscscccssscscccccccccccssscscccssscscccssscscccssssscccssssscccsssssccccccccccssssssssscscccccccccssssssssscscccccccccssssssssscscccccccccssssssssscscccccccccssssssssscscccccccccssssssssscs" />
      <g
         id="g6746-9-8-2"
         transform="translate(34.294452,-73.626019)">
        <rect
           style="fill:#000000;fill-opacity:1;stroke:#000000;stroke-width:0.5;stroke-miterlimit:4;stroke-dasharray:none;stroke-opacity:1"
           id="rect3640-97-2-76-6"
           width="25.929165"
           height="25.929167"
           x="-20.85755"
           y="81.542709" />
        <rect
           style="fill:#ffffff;fill-opacity:1;stroke:#000000;stroke-width:0.3;stroke-miterlimit:4;stroke-dasharray:none;stroke-opacity:1"
           id="rect3640-2-7-6"
           width="25.929165"
           height="25.929167"
           x="-21.386717"
           y="81.013542" />
      </g>
      <g
         id="g6746-9-55-1-7"
         transform="translate(33.765282,-17.005186)">
        <rect
           style="fill:#000000;fill-opacity:1;stroke:#000000;stroke-width:0.5;stroke-miterlimit:4;stroke-dasharray:none;stroke-opacity:1"
           id="rect3640-97-2-9-9-7"
           width="25.929165"
           height="25.929167"
           x="-20.85755"
           y="81.542709" />
        <rect
           style="fill:#ffffff;fill-opacity:1;stroke:#000000;stroke-width:0.3;stroke-miterlimit:4;stroke-dasharray:none;stroke-opacity:1"
           id="rect3640-2-96-0-8"
           width="25.929165"
           height="25.929167"
           x="-21.386717"
           y="81.013542" />
      </g>
      <g
         id="g6746-9-55-3-4-5-4"
         transform="translate(140.39237,-16.47602)">
        <rect
           style="fill:#000000;fill-opacity:1;stroke:#000000;stroke-width:0.5;stroke-miterlimit:4;stroke-dasharray:none;stroke-opacity:1"
           id="rect3640-97-2-9-2-0-1-5"
           width="25.929165"
           height="25.929167"
           x="-20.85755"
           y="81.542709" />
        <rect
           style="fill:#ffffff;fill-opacity:1;stroke:#000000;stroke-width:0.3;stroke-miterlimit:4;stroke-dasharray:none;stroke-opacity:1"
           id="rect3640-2-96-7-7-4-1"
           width="25.929165"
           height="25.929167"
           x="-21.386717"
           y="81.013542" />
      </g>
      <g
         id="g6746-9-55-3-2-9-6"
         transform="translate(111.81737,-16.47602)">
        <rect
           style="fill:#000000;fill-opacity:1;stroke:#000000;stroke-width:0.5;stroke-miterlimit:4;stroke-dasharray:none;stroke-opacity:1"
           id="rect3640-97-2-9-2-4-8-2"
           width="25.929165"
           height="25.929167"
           x="-20.85755"
           y="81.542709" />
        <rect
           style="fill:#ffffff;fill-opacity:1;stroke:#000000;stroke-width:0.3;stroke-miterlimit:4;stroke-dasharray:none;stroke-opacity:1"
           id="rect3640-2-96-7-2-0-3"
           width="25.929165"
           height="25.929167"
           x="-21.386717"
           y="81.013542" />
      </g>
      <g
         id="g6746-9-5-0-8"
         transform="translate(34.294462,-45.051018)">
        <rect
           style="fill:#000000;fill-opacity:1;stroke:#000000;stroke-width:0.5;stroke-miterlimit:4;stroke-dasharray:none;stroke-opacity:1"
           id="rect3640-97-2-5-0-6"
           width="25.929165"
           height="25.929167"
           x="-20.85755"
           y="81.542709" />
        <rect
           style="fill:#ffffff;fill-opacity:1;stroke:#000000;stroke-width:0.3;stroke-miterlimit:4;stroke-dasharray:none;stroke-opacity:1"
           id="rect3640-2-0-74-3"
           width="25.929165"
           height="25.929167"
           x="-21.386717"
           y="81.013542" />
      </g>
      <g
         id="g6746-9-5-5-8-7"
         transform="translate(62.869456,-45.051019)">
        <rect
           style="fill:#000000;fill-opacity:1;stroke:#000000;stroke-width:0.5;stroke-miterlimit:4;stroke-dasharray:none;stroke-opacity:1"
           id="rect3640-97-2-5-6-51-5"
           width="25.929165"
           height="25.929167"
           x="-20.85755"
           y="81.542709" />
        <rect
           style="fill:#ffffff;fill-opacity:1;stroke:#000000;stroke-width:0.3;stroke-miterlimit:4;stroke-dasharray:none;stroke-opacity:1"
           id="rect3640-2-0-7-4-5"
           width="25.929165"
           height="25.929167"
           x="-21.386717"
           y="81.013542" />
      </g>
      <g
         id="g6746-9-5-5-1-0-6"
         transform="translate(140.39237,-45.051018)">
        <rect
           style="fill:#000000;fill-opacity:1;stroke:#000000;stroke-width:0.5;stroke-miterlimit:4;stroke-dasharray:none;stroke-opacity:1"
           id="rect3640-97-2-5-6-1-4-9"
           width="25.929165"
           height="25.929167"
           x="-20.85755"
           y="81.542709" />
        <rect
           style="fill:#ffffff;fill-opacity:1;stroke:#000000;stroke-width:0.3;stroke-miterlimit:4;stroke-dasharray:none;stroke-opacity:1"
           id="rect3640-2-0-7-2-9-8"
           width="25.929165"
           height="25.929167"
           x="-21.386717"
           y="81.013542" />
      </g>
      <g
         id="g6746-9-5-5-3-2-5"
         transform="translate(111.81737,-45.051019)">
        <rect
           style="fill:#000000;fill-opacity:1;stroke:#000000;stroke-width:0.5;stroke-miterlimit:4;stroke-dasharray:none;stroke-opacity:1"
           id="rect3640-97-2-5-6-5-6-0"
           width="25.929165"
           height="25.929167"
           x="-20.85755"
           y="81.542709" />
        <rect
           style="fill:#ffffff;fill-opacity:1;stroke:#000000;stroke-width:0.3;stroke-miterlimit:4;stroke-dasharray:none;stroke-opacity:1"
           id="rect3640-2-0-7-8-9-0"
           width="25.929165"
           height="25.929167"
           x="-21.386717"
           y="81.013542" />
      </g>
      <g
         id="g6746-9-5-5-5-3-9"
         transform="translate(111.81738,-73.626019)">
        <rect
           style="fill:#000000;fill-opacity:1;stroke:#000000;stroke-width:0.5;stroke-miterlimit:4;stroke-dasharray:none;stroke-opacity:1"
           id="rect3640-97-2-5-6-0-8-3"
           width="25.929165"
           height="25.929167"
           x="-20.85755"
           y="81.542709" />
        <rect
           style="fill:#ffffff;fill-opacity:1;stroke:#000000;stroke-width:0.3;stroke-miterlimit:4;stroke-dasharray:none;stroke-opacity:1"
           id="rect3640-2-0-7-0-3-3"
           width="25.929165"
           height="25.929167"
           x="-21.386717"
           y="81.013542" />
      </g>
      <g
         id="g6746-9-5-5-5-7-3-0"
         transform="translate(140.39238,-73.626019)">
        <rect
           style="fill:#000000;fill-opacity:1;stroke:#000000;stroke-width:0.5;stroke-miterlimit:4;stroke-dasharray:none;stroke-opacity:1"
           id="rect3640-97-2-5-6-0-1-9-2"
           width="25.929165"
           height="25.929167"
           x="-20.85755"
           y="81.542709" />
        <rect
           style="fill:#ffffff;fill-opacity:1;stroke:#000000;stroke-width:0.3;stroke-miterlimit:4;stroke-dasharray:none;stroke-opacity:1"
           id="rect3640-2-0-7-0-9-0-8"
           width="25.929165"
           height="25.929167"
           x="-21.386717"
           y="81.013542" />
      </g>
      <g
         id="g6746-9-2-7-5"
         transform="translate(62.869456,-73.626019)">
        <rect
           style="fill:#000000;fill-opacity:1;stroke:#000000;stroke-width:0.5;stroke-miterlimit:4;stroke-dasharray:none;stroke-opacity:1"
           id="rect3640-97-2-7-0-5"
           width="25.929165"
           height="25.929167"
           x="-20.85755"
           y="81.542709" />
        <rect
           style="fill:#ffffff;fill-opacity:1;stroke:#000000;stroke-width:0.3;stroke-miterlimit:4;stroke-dasharray:none;stroke-opacity:1"
           id="rect3640-2-9-0-8"
           width="25.929165"
           height="25.929167"
           x="-21.386717"
           y="81.013542" />
      </g>
      <path
         d="m 19.593162,25.965223 c 0.39805,-0.83094 1.27921,-2.758919 1.65847,-3.62874 0.2538,-0.582091 0.84859,-1.89177 1.32173,-2.910422 0.47315,-1.018648 1.25588,-2.713608 1.73939,-3.766578 0.48351,-1.05297 0.96171,-1.82688 1.06266,-1.71979 0.10095,0.10709 0.47572,0.73048 0.8328,1.38533 0.35708,0.65484 1.00632,1.84547 1.44278,2.64583 0.43644,0.80037 1.18761,2.169589 1.66925,3.042708 1.46967,2.664241 2.44833,4.643663 2.34181,4.736452 -0.20991,0.182848 -12.15543,0.395859 -12.06889,0.21521 z m 8.45475,-0.75913 2.57248,-0.170349 -1.24682,-2.40797 c -0.68576,-1.32438 -1.31043,-2.467491 -1.38816,-2.540252 -0.14558,-0.13626 -1.73989,-3.110399 -2.23275,-4.165119 -0.28303,-0.60567 -0.6741,-0.80329 -0.6741,-0.34064 0,0.28027 -0.71264,1.90349 -3.40627,7.75878 -0.45489,0.9888 -0.82706,1.852009 -0.82706,1.918229 0,0.17558 4.2221,0.1447 7.20268,-0.0527 z"
         style="fill:#000000;stroke-width:0.0700042"
         id="path132655" />
      <path
         d="m 46.708192,14.860523 c -0.6048,-0.1351 -0.58526,-0.4847 0.0661,-1.18391 0.29104,-0.3124 0.52917,-0.72414 0.52917,-0.91498 0,-0.19085 0.10462,-0.34699 0.23248,-0.34699 0.12787,0 0.38044,-0.35719 0.56127,-0.79375 0.30216,-0.72948 1.05833,-1.12107 1.05833,-0.54806 0,0.13512 0.14883,0.40301 0.33073,0.59531 0.36795,0.38898 2.05052,3.08961 2.05052,3.29122 0,0.14484 -4.1148,0.0606 -4.82865,-0.0988 z"
         style="fill:#000000;stroke-width:0.0700042"
         id="path132847" />
      <path
         d="m 18.510682,57.195333 c 0.0499,-0.109141 0.36876,-0.79375 0.70849,-1.521349 1.16379,-2.492542 1.79309,-3.88107 3.50743,-7.739071 0.30716,-0.691221 0.90247,-2.00625 1.32292,-2.922291 0.42045,-0.916038 0.76446,-1.758148 0.76446,-1.87134 0,-0.113199 0.35718,-0.943189 0.79375,-1.844418 0.43656,-0.901232 0.79375,-1.75577 0.79375,-1.89897 0,-0.143211 0.14485,-0.260371 0.3219,-0.260371 0.59251,0 8.13358,5.153141 8.13097,5.55625 -10e-4,0.218281 -0.56444,0.812839 -1.25116,1.321231 -0.68672,0.5084 -1.30812,0.987719 -1.38088,1.06517 -0.0728,0.0775 -0.66768,0.554458 -1.32204,1.060019 -0.65437,0.50556 -1.36874,1.062511 -1.5875,1.23766 -0.21877,0.17516 -1.17166,0.924819 -2.11754,1.66592 -0.94589,0.741101 -1.89839,1.492451 -2.11667,1.66968 -0.21828,0.177231 -0.81359,0.6165 -1.32292,0.976151 -0.50932,0.359658 -1.10463,0.803989 -1.32291,0.987398 -0.21829,0.183412 -1.11125,0.868461 -1.98438,1.522341 -1.49124,1.11678 -2.14723,1.45397 -1.93767,0.99599 z"
         style="fill:#000000;stroke-width:0.0700042"
         id="path132963" />
      <path
         d="m 57.391046,55.874702 -1.421889,-0.0983 0.16574,-0.97722 c 0.39996,-2.35816 0.70377,-3.970211 0.95704,-5.078262 0.149691,-0.654849 0.38835,-1.845468 0.530379,-2.645838 0.14202,-0.80036 0.381201,-1.99099 0.53151,-2.645831 0.15031,-0.654839 0.346012,-1.637109 0.434891,-2.18281 0.0889,-0.545708 0.236169,-0.99219 0.327311,-0.99219 0.0911,0 0.447518,1.518049 0.791948,3.37344 0.34444,1.855391 0.722061,3.790151 0.83916,4.299479 0.117099,0.509321 0.348739,1.640412 0.51476,2.513542 0.166021,0.87312 0.412531,2.01803 0.547802,2.544239 0.50519,1.965161 0.425928,2.09175 -1.275401,2.037021 -0.83675,-0.0269 -2.161212,-0.0932 -2.943251,-0.147261 z m 3.40627,-1.274141 c 0,-0.372121 -0.110959,-1.17579 -0.246579,-1.78593 -0.13562,-0.61015 -0.373229,-1.82373 -0.528021,-2.69685 -0.554519,-3.127952 -1.10831,-5.807562 -1.224158,-5.92342 -0.0649,-0.0649 -0.117912,0.215551 -0.117912,0.623099 0,0.407551 -0.11068,1.17154 -0.245948,1.697741 -0.135271,0.526209 -0.366261,1.61159 -0.5133,2.41195 -0.147042,0.80037 -0.388932,2.110049 -0.537541,2.910419 -0.1486,0.800359 -0.33015,1.836081 -0.403431,2.3016 l -0.133229,0.846391 1.37975,0.0968 c 0.758848,0.0533 1.647629,0.11888 1.975051,0.145802 0.474929,0.039 0.595318,-0.0879 0.595318,-0.62765 z"
         style="fill:#000000;stroke-width:0.0700042"
         id="path133117" />
      <path
         d="m 31.931402,87.225543 c -0.51168,-0.47294 -1.69734,-1.51162 -2.63481,-2.30818 -0.93747,-0.796549 -1.76402,-1.510929 -1.83678,-1.5875 -0.0728,-0.0766 -0.9062,-0.79094 -1.85208,-1.5875 -0.94589,-0.796549 -1.77933,-1.512559 -1.85209,-1.59113 -0.0728,-0.0786 -0.78713,-0.674851 -1.5875,-1.325049 -0.80036,-0.650211 -1.6338,-1.365102 -1.85208,-1.588662 -0.21828,-0.223559 -1.04941,-0.940088 -1.84695,-1.592299 -0.79754,-0.652201 -1.98817,-1.69118 -2.64584,-2.308831 -1.59951,-1.502191 -0.92005,-1.490628 2.22805,0.0379 1.31837,0.64013 2.78398,1.324038 3.25693,1.519798 0.47294,0.19576 0.85989,0.445921 0.85989,0.555922 0,0.11 0.14883,0.199159 0.33073,0.198138 0.41761,-0.0021 5.72224,2.643632 6.36847,3.176622 0.44985,0.371009 0.7478,0.93676 2.09029,3.96898 0.28992,0.654849 0.93121,2.050439 1.42507,3.101329 0.49387,1.050891 0.89794,1.97362 0.89794,2.050519 0,0.33724 -0.48586,0.078 -1.34924,-0.72008 z m -2.00915,-4.7835 c -1.44973,-2.950231 -1.56885,-3.106952 -2.84763,-3.746061 -0.73403,-0.36686 -1.63226,-0.834408 -1.99606,-1.038989 -0.74175,-0.417121 -5.77864,-2.878072 -6.20662,-3.032461 -0.36147,-0.13039 0.43807,0.612402 2.23787,2.079022 0.80036,0.652208 1.6338,1.368739 1.85208,1.592299 0.21828,0.22356 1.05172,0.937929 1.85209,1.5875 0.80036,0.649571 1.6338,1.363189 1.85208,1.585831 0.21828,0.222638 1.17078,1.055748 2.11667,1.85135 0.94588,0.795599 1.89642,1.649439 2.11231,1.897409 0.21589,0.24797 0.42576,0.417618 0.46638,0.377 0.0406,-0.0406 -0.60701,-1.459431 -1.43917,-3.1529 z"
         style="fill:#000000;stroke-width:0.0700042"
         id="path133233" />
      <path
         d="m 50.074642,72.189943 c -0.57821,-0.42137 -1.28942,-0.959048 -1.58046,-1.194858 -0.29104,-0.23581 -1.33284,-1.020871 -2.3151,-1.744591 -0.98227,-0.72371 -1.78594,-1.38385 -1.78594,-1.466969 0,-0.203671 11.003265,0.17268 12.162135,0.415988 l 0.917339,0.192601 -0.990499,0.612161 c -0.54478,0.336691 -1.136182,0.753251 -1.31422,0.925679 -0.178041,0.17244 -0.740435,0.601531 -1.249755,0.95353 -0.50932,0.352001 -0.98557,0.711009 -1.05833,0.79779 -0.0728,0.0868 -0.49265,0.409109 -0.93309,0.71628 l -0.8008,0.558501 z"
         style="fill:#000000;stroke-width:0.0700042"
         id="path133387" />
      <path
         d="m 108.45907,27.443572 c -0.16113,-0.917128 -0.32462,-2.318909 -0.3633,-3.115069 l -0.0703,-1.44757 2.11666,-0.455269 c 3.33472,-0.717261 3.22054,-0.75648 3.39923,1.167588 0.0845,0.9095 0.22982,2.310122 0.32299,3.112482 l 0.1694,1.458838 -1.9458,0.340371 c -1.0702,0.1872 -2.25858,0.400171 -2.64084,0.47326 -0.66854,0.12782 -0.7062,0.0693 -0.988,-1.534631 z"
         style="fill:#000000;stroke-width:0.0700042"
         id="path133640" />
      <path
         d="m 131.17647,20.803493 c -3.71078,-0.137761 -6.77405,-0.273241 -6.80726,-0.301069 -0.0655,-0.0549 0.35285,-2.47073 0.75907,-4.383651 0.13906,-0.65485 0.33738,-1.66688 0.44072,-2.24896 l 0.18789,-1.05833 5.15719,0.0832 c 4.4623,0.072 5.20318,0.14329 5.49856,0.52916 0.18776,0.24528 0.54495,0.68448 0.79375,0.97601 0.24881,0.29152 0.86602,1.06543 1.37158,1.71979 0.50556,0.65436 0.98489,1.24928 1.06517,1.322041 0.0803,0.0728 0.55653,0.66807 1.05833,1.322909 0.50181,0.654849 0.97498,1.250161 1.0515,1.322919 0.0765,0.0728 0.30253,0.340651 0.50225,0.59531 0.42407,0.540731 0.27961,0.542311 -11.07875,0.12066 z m 9.30129,-1.178991 c -0.28837,-0.40018 -0.74403,-0.96573 -1.01257,-1.256769 -0.26854,-0.291041 -0.90171,-1.06495 -1.40704,-1.71979 -0.50533,-0.65485 -1.27817,-1.567 -1.71742,-2.027 l -0.79863,-0.83637 -4.63021,-0.0897 -4.63021,-0.0897 -0.1691,1.19062 c -0.20685,1.45638 -0.67957,3.89542 -0.9074,4.681889 l -0.16828,0.58085 7.48565,0.02061 c 4.11711,0.0113 7.54242,0.0774 7.6118,0.146751 0.0694,0.0694 0.29301,0.126148 0.49694,0.126148 0.28079,0 0.24352,-0.17662 -0.15353,-0.727599 z"
         style="fill:#000000;stroke-width:0.0700042"
         id="path133794" />
      <path
         d="m 103.82826,55.872414 c 0.0716,-0.836739 0.24161,-2.31806 0.37776,-3.291821 0.31699,-2.267228 0.31375,-3.542769 -0.0105,-4.1201 -0.46755,-0.832519 -2.95357,-8.580829 -2.80182,-8.732578 0.0817,-0.0817 1.25004,1.01822 2.59636,2.444218 1.34632,1.426001 3.43012,3.61015 4.63066,4.853662 1.20055,1.243518 2.1822,2.447909 2.18145,2.676438 -7.9e-4,0.22852 -0.68536,1.134462 -1.52135,2.01318 -0.836,0.878732 -2.33826,2.515841 -3.33836,3.638021 -1.0001,1.12219 -1.91423,2.04034 -2.0314,2.04034 -0.11717,0 -0.15444,-0.68461 -0.0828,-1.52136 z m 4.52762,-4.173601 c 0.90935,-1.015119 1.65349,-1.909469 1.65365,-1.987439 1.5e-4,-0.078 -0.89122,-1.090009 -1.98083,-2.248961 -1.0896,-1.158949 -2.60765,-2.842908 -3.37343,-3.742129 -1.41041,-1.656159 -2.29106,-2.362271 -1.83082,-1.46795 0.12937,0.25138 0.73422,1.908209 1.34412,3.681819 l 1.1089,3.224761 -0.2843,2.72837 c -0.15637,1.5006 -0.34511,3.026021 -0.41944,3.38982 -0.1488,0.728409 0.32981,0.27559 3.78215,-3.578291 z"
         style="fill:#000000;stroke-width:0.0700042"
         id="path133910" />
      <path
         d="m 129.63516,50.905383 -1.3656,-2.80875 0.52693,-1.10612 c 0.28981,-0.608359 0.85849,-1.70143 1.26372,-2.429029 0.40524,-0.727609 0.8922,-1.602581 1.08213,-1.944391 0.32984,-0.593579 0.41145,-0.489008 1.81833,2.330072 l 1.473,2.951538 -0.53219,0.97722 c -0.29271,0.53748 -0.92186,1.6916 -1.39811,2.56472 -1.42046,2.604161 -1.33399,2.620301 -2.86821,-0.53526 z"
         style="fill:#000000;stroke-width:0.0700042"
         id="path134026" />
      <path
         d="m 103.26293,78.676813 c -2.40231,-1.530011 -2.24712,-1.430099 -5.10065,-3.28401 -1.35015,-0.877171 -2.510102,-1.594861 -2.577674,-1.594861 -0.06757,0 -0.41039,-0.25001 -0.761823,-0.55558 l -0.638966,-0.55557 0.564047,-0.965779 c 0.310224,-0.53118 0.661556,-1.08485 0.780738,-1.230371 0.119181,-0.145518 0.636619,-0.947909 1.14986,-1.783098 l 0.93317,-1.518521 0.816438,0.422201 c 0.44904,0.232199 0.946677,0.530598 1.105858,0.663099 0.159184,0.13249 2.224192,1.50318 4.588902,3.04596 2.36471,1.54278 4.29948,2.90041 4.29948,3.016959 0,0.19536 -2.78443,4.914431 -3.14738,5.33419 -0.0879,0.101719 -0.99335,-0.34586 -2.012,-0.994619 z m 1.98438,-0.157289 c 0,-0.150852 0.22418,-0.590312 0.49819,-0.976572 0.71194,-1.003638 1.61847,-2.658819 1.61847,-2.955078 0,-0.2359 -7.738973,-5.552432 -8.082354,-5.552432 -0.08664,0 -0.336116,-0.178599 -0.554397,-0.39688 -0.218282,-0.218279 -0.501714,-0.39687 -0.629849,-0.39687 -0.253802,0 -1.449705,1.659771 -2.347074,3.25746 -0.621429,1.1064 -0.539234,1.305271 0.831908,2.01277 0.400183,0.206491 0.727605,0.474382 0.727605,0.59531 0,0.12093 0.116885,0.219871 0.259744,0.219871 0.283723,0 4.760277,2.839289 5.825667,3.69498 0.36381,0.29219 0.81029,0.53285 0.99219,0.534811 0.1819,0.0021 0.33073,0.129637 0.33073,0.283739 0,0.154109 0.11906,0.206621 0.26458,0.116678 0.14553,-0.0899 0.26459,-0.286938 0.26459,-0.437787 z"
         style="fill:#000000;stroke-width:0.0700042"
         id="path134142" />
      <path
         d="m 137.39418,79.617972 c -0.43656,-0.10551 -1.62719,-0.3307 -2.64583,-0.50043 -2.59807,-0.432879 -4.5742,-0.800899 -5.89078,-1.09706 -0.62055,-0.139581 -1.39446,-0.254461 -1.71979,-0.25527 -0.32533,-7.94e-4 -1.0502,-0.128839 -1.61081,-0.284509 -1.25284,-0.347872 -1.28358,-0.107122 0.79872,-6.25689 l 1.54349,-4.558501 1.48524,-0.006 c 0.81689,-0.003 2.06704,-0.114052 2.77813,-0.246642 0.71108,-0.132591 2.12632,-0.281419 3.14496,-0.33073 l 1.85209,-0.0897 0.18044,1.719789 c 0.0992,0.945891 0.31119,2.850891 0.47098,4.233339 0.56459,4.884552 0.76761,7.542511 0.58832,7.70229 -0.0998,0.0889 -0.5386,0.0753 -0.97516,-0.0302 z m 0.28021,-1.486349 c -0.16032,-0.63876 -0.28827,-1.845281 -0.9318,-8.78677 -0.12588,-1.357781 -0.29205,-2.53188 -0.36927,-2.609091 -0.0772,-0.0772 -1.12927,-0.01169 -2.33789,0.145651 -1.20862,0.157329 -2.94384,0.361108 -3.85604,0.452839 -1.21791,0.122471 -1.72695,0.294601 -1.91602,0.64788 -0.22834,0.426641 -2.90773,8.341921 -2.90773,8.589801 0,0.110209 1.35588,0.388908 5.82083,1.196488 1.67349,0.302681 3.51896,0.649941 4.10104,0.771692 0.58209,0.121748 1.39867,0.235659 1.81463,0.253129 0.68858,0.0289 0.7407,-0.0303 0.58225,-0.661619 z"
         style="fill:#000000;stroke-width:0.0700042"
         id="path134334" />
    </g>
  </g>
</svg>
